<?xml version="1.0" encoding="utf-8"?>
<!-- Generator: Adobe Illustrator 19.1.0, SVG Export Plug-In . SVG Version: 6.00 Build 0)  -->
<svg version="1.1" id="Layer_1" xmlns="http://www.w3.org/2000/svg" xmlns:xlink="http://www.w3.org/1999/xlink" x="0px" y="0px"
	 viewBox="0 0 1920 130" style="enable-background:new 0 0 1920 130;" xml:space="preserve">
<style type="text/css">
	.st0{fill-rule:evenodd;clip-rule:evenodd;fill:none;stroke:#FFFFFF;stroke-miterlimit:10;}
	.st1{fill-rule:evenodd;clip-rule:evenodd;fill:#FFFFFF;}
	.st2{fill-rule:evenodd;clip-rule:evenodd;fill:#BABABA;}
	.st3{clip-path:url(#SVGID_2_);fill:#E22185;}
	.st4{opacity:0.3;clip-path:url(#SVGID_2_);}
	.st5{clip-path:url(#SVGID_2_);}
</style>
<symbol  id="Feder-only" viewBox="-80.3 -36.1 160.5 74.4">
	<path class="st0" d="M-36.7,27.1c3.6,0.2,6.4,1.8,8.6,3.4c0-0.3,0-0.6,0-1c0.6,0.4,1.3,0.8,1.9,1.2c-1.4-1.9-2.7-3.8-4.1-5.8
		c0.5,0,1,0,1.4,0c3.4,1,7.3,0.4,10.8,0c0-0.1,0-0.2,0-0.2c-2.1,0.1-4.2,0.2-6.2,0.2c0-0.2,0-0.5,0-0.7c0.5-0.1,1-0.2,1.4-0.2
		c-2.1,0-6.2-0.3-7-1.7c0.8,0,1.6,0,2.4,0c2.7,0.8,8.2,0.9,10.6-0.2c-2.8,0-6.7-1.2-7.4-3.4c5.4,0.1,11.1,0.5,15.1-1.2
		c-0.6-0.1-1.3-0.2-1.9-0.2c0-0.3,0-0.6,0-1c7.7-0.9,12.7-6,19.4-8.2c0-0.1,0-0.2,0-0.2c-1.8,0.5-3.7,1-5.5,1.4c0-0.1,0-0.2,0-0.2
		C3,9,3,8.8,3.1,8.6C4.1,8.3,5,8,6,7.7c0-0.1,0-0.2,0-0.2c-0.6,0-1.3,0-1.9,0C4.3,7.2,4.6,7,4.8,6.7C1.9,6.9-5.6,8-7,5.8
		c1.2,0,2.4,0,3.6,0C1.2,7,6.9,5.1,11.3,4.6c-0.2-0.1-0.3-0.2-0.5-0.2C7.9,3.2,4.6,3.6,2.6,1.7c0-0.1,0-0.2,0-0.2c0.2,0,0.5,0,0.7,0
		C9.6,3.7,19.6,4,25.7,6c-0.2-0.3-0.5-0.6-0.7-1c-0.8-0.5-1.6-1-2.4-1.4c0-0.1,0-0.2,0-0.2C26.4,4,28.1,6.5,31,7.9
		c0-0.1,0-0.2,0-0.2C28.2,4.1,19.1-2.4,17.8-5.5c0.3,0.2,0.6,0.3,1,0.5C26.9-1.7,30.2,7.1,36,13C34.1,7.2,28.2,4,26.4-1.2
		c3.4,0.7,7,4,8.2,7c0.1,0,0.2,0,0.2,0c-0.3-2.5-1.8-3.5-2.6-5.5c8,1.4,9,8.5,14.4,11c-1-1.9-1.9-3.8-2.9-5.8c0.1,0,0.2,0,0.2,0
		c0.6,0.6,1.3,1.3,1.9,1.9c-0.1-0.7-0.2-1.4-0.2-2.2c0.1,0.2,0.2,0.3,0.2,0.5c3.8,3.7,6,10.3,11,12.7c-1.5-2-3.3-3.8-3.8-6.7
		c0.1,0,0.2,0,0.2,0c0.3,0.2,0.6,0.5,1,0.7c0.8,1.7,3.4,3.4,5.3,4.1c-0.4-1-0.8-1.9-1.2-2.9c0.3,0.2,0.6,0.3,1,0.5
		c1.9,0.8,2.9,2.4,4.3,3.6c-0.9-3.1-2.6-4.8-4.3-7c0-0.1,0-0.2,0-0.2C64.7,12,65.9,21.4,74.2,24c-0.6-0.8-0.7-0.7-0.7-1.4
		c0.1,0,0.2,0,0.2,0c1.7,0.2,2.8,0.8,3.4,2.2c0.1,0,0.2,0,0.2,0c0.7-4.2,0.3-7.9-0.5-11.8c0.1,0,0.2,0,0.2,0
		c0.2,0.1,0.3,0.2,0.5,0.2c0.2,0.6,0.3,1.1,0.5,1.7c0.1,0,0.2,0,0.2,0c-0.1-7.2-3.8-11.5-7.4-16.3c0-0.1,0-0.2,0-0.2
		C72-1.3,74.7,1.5,74.9,1c0.2,0,0.3,0,0.5,0c-0.6-1-1.1-1.9-1.7-2.9c0.3,0.2,0.6,0.3,1,0.5c2.3,0.9,4,3.3,4.8,5.8c0.1,0,0.2,0,0.2,0
		c-0.6-3.6-3-4.8-4.3-7.4c0.1,0,0.2,0,0.2,0c1.1,0.6,2.2,1.3,3.4,1.9c0-0.1,0-0.2,0-0.2c-1.8-2.9-4.2-5-7.9-6c0-0.2,0-0.3,0-0.5
		c0.1,0,0.2,0,0.2,0c1.7,0.6,3.4,1.3,5,1.9c-4.9-8-15.7-8.2-25-12c-3.1-1.7-6.2-3.4-9.4-5c-1.8-0.7-11.9-2.2-12.5-3.1
		c2-0.1,4-0.2,6-0.2c-4.3-0.2-8.6-0.5-13-0.7c-3.1,0.6-6.2,1.1-9.4,1.7c0-0.1,0-0.2,0-0.2c0.1-0.2,0.2-0.3,0.2-0.5
		c1.8-0.6,3.7-1.3,5.5-1.9c1.7-0.2,3.4-0.3,5-0.5c-2.6-0.3-8.6,0-11-0.7c0.1-0.2,0.2-0.3,0.2-0.5c1.2-0.4,2.4-0.8,3.6-1.2
		c-0.2,0-0.3,0-0.5,0c-0.9-0.9-2.4-1.6-3.8-1.2c0.5-0.6,1-1.1,1.4-1.7c-3.7-0.1-5.5,1-8.2,1.7c0-0.2,0-0.5,0-0.7
		c0.2-0.4,0.5-0.8,0.7-1.2c-4.2,0-6.5,1.6-9.8,2.2c0.1-0.3,0.2-0.6,0.2-1c1.3-0.7,2.6-1.4,3.8-2.2c-3,1.1-6.1,2.2-9.1,3.4
		c0.5-1.7,2.5-3,4.1-3.6c0-0.1,0-0.2,0-0.2c-4.8,0.6-7.3,3.3-11,4.3c0-0.3,0-0.6,0-1c0.3-0.9,0.6-1.8,1-2.6c-0.1,0-0.2,0-0.2,0
		c-4.6,2.2-7.6,8.3-10.3,9.4c0-0.2,0-0.5,0-0.7c0.4-1,0.8-1.9,1.2-2.9c-0.1,0-0.2,0-0.2,0c-3.8,3-7.4,7.4-9.8,11.8
		c-1.3,2.4-1.4,6.2-4.1,7.2c0-0.4,0-0.8,0-1.2c0.5-2.1,1-4.2,1.4-6.2c-0.1,0-0.2,0-0.2,0c-0.6,1.3-0.7,0.4-1.2,1
		c-1.4,2.4-1.7,7-4.1,8.4c-0.8,0.7-1.5,0.4-2.4,0c-0.4-2.2-0.8-4.5-1.2-6.7c-0.6,3.3-1.1,6.6-1.7,9.8c-0.4,0-0.8,0-1.2,0
		c-0.5-1.3-1-1-1.2-2.6c-0.2-0.8-0.3-1.6-0.5-2.4c0,2.9,0,5.8,0,8.6c-0.4,0-0.8,0-1.2,0c-2.5-1.6-2.9-4.9-5.5-6.5
		c0.7,3.7,3.9,7.8,2.9,12c-0.1,0-0.2,0-0.2,0C-55.5,3.6-56,3-56.4,1.7c-0.1,0-0.2,0-0.2,0c0,0.4,0,0.8,0,1.2c-0.7-0.3-1.4-0.6-2.2-1
		c1,1.7,3.5,4.5,2.2,7.7c-0.2,0.3-0.3,0.6-0.5,1c-0.8-0.1-1.6-0.2-2.4-0.2c1.4,1.4,3.4,2,3.8,4.3c-0.2,0.2-0.5,0.3-0.7,0.5
		c-4.1,1.9-11.3-1-14.9,0c4.1,0.8,10.1,1.6,15.4,1c0,0.3,0,0.6,0,1c-0.1,0.2-0.2,0.3-0.2,0.5c-7.7,1.3-16.5,2.2-23.5-0.7
		c0.1,0.7,0.2,1.4,0.2,2.2c9,4.4,21.4,1.5,29-1.9c17.8-7.8,32.2-31,53.5-31.4c0,0.2,0,0.3,0,0.5c-26.3,5.7-34.4,28.7-59.3,35.5
		c0,0.4,0,0.8,0,1.2c0.5-0.2,1-0.3,1.4-0.5c-0.2,1.1-0.3,2.2-0.5,3.4c0.2,0.5,1.4,0.3,1,1.9c-0.4,1.3-1.5,1.6-0.5,3.8
		c0-0.2,0-0.3,0-0.5c0.6-1.4,1.1-2.9,1.7-4.3c0.3,0,0.6,0,1,0c0.2,1,0.3,1.9,0.5,2.9c0.4-1.2,0.6-1.5,2.2-1.7
		c0.6,1.1,1.1,2.2,1.7,3.4c0.7-0.6,0.2-0.5,1.2-0.5c0.6,1.6,1.3,3.2,1.9,4.8c0-1.4,0-2.1,1-2.6c0.2,0.3,0.3,0.6,0.5,1
		c-0.2-2.9-0.2-7.2,1.7-8.2c0,3.3,0.7,5.5,1.4,7.9c0.1,0,0.2,0,0.2,0c-0.4-1.8-1.1-4.1-0.5-6.2c0.1,0,0.2,0,0.2,0
		c0.2,0.1,0.5,0.2,0.7,0.2c0.4,1,0.8,1.9,1.2,2.9c0.1,0,0.2,0,0.2,0c0.2-1.2-0.2-0.7,0.7-1.2c0.2,0.8,0.5,1.6,0.7,2.4
		c0.1-0.2,0.2-0.5,0.2-0.7C-35.7,30.1-36.5,28.8-36.7,27.1z"/>
</symbol>
<symbol  id="Voegel" viewBox="-69.2 -67.2 139 135.3">
	<path class="st0" d="M39.5,67.2c1.6-0.9,5.9-3.7,8.9-2.6c1.4,0.5,1.3,1.6,3.4,1.9c0.2-0.7,0.5-1.4,0.7-2.2c3.8-0.4,7.7,0.1,11,0.5
		c-2.4-3.8-6.4-5.1-12.2-4.1c1-1.6,2-1.9,1.2-3.4c-3.5-1.5-7.3-1.7-9.6,1.4c1.1,0.8,2.2,1.6,3.4,2.4c-3.2,1.1-5.2,0-6.5,3.1
		C39.6,65.3,39.6,66.2,39.5,67.2z"/>
	<path class="st1" d="M10.9,61.2c0.3,0,5.9-2.5,6-2.6c-1.1,0.2-2.1,0.4-2.9-0.2c0.1-0.2,0.2-0.3,0.2-0.5c-0.3,0.1-0.6,0.2-1,0.2
		C12.9,59.9,12.5,60,10.9,61.2z"/>
	<path class="st0" d="M16.7,52.1c6.5,0,6.3-3.7,9.4-7c-0.1-0.8-0.1-0.7,0.2-1.4c3.5-0.9,5.4-2.5,5.5-6.7c-2,1.4-5.9,2.9-7.4,4.8
		c-0.2-0.1-0.3-0.2-0.5-0.2c-0.2-0.6-0.5-1.1-0.7-1.7c-1.9,1.3-2.6,2-3.4,4.6c1-0.1,1.9-0.2,2.9-0.2c-0.1,0.2-0.2,0.5-0.2,0.7
		C19.9,46.6,18.5,49.6,16.7,52.1z"/>
	<path class="st0" d="M53.4,39.8c2.1,0.1,4-0.2,5-1.2c-1-0.4-1.2-0.6-1.4-1.9c3.5-4.3,5.9-5,12.2-6.7c0-0.1,0-0.2,0-0.2
		c-0.2-0.2-0.5-0.3-0.7-0.5c-6.2-4.4-14.8,1.1-18.2,3.4c0.3-2.3,1.2-4.4,2.2-6c-4.1-0.2-7,0.1-8.9,2.6c-0.2,0.6-0.5,1.1-0.7,1.7
		c-1.4-0.7-2.9-1.4-4.3-2.2c0.2,0.3,0.5,0.6,0.7,1C41.8,35,48,37.2,53.4,39.8z"/>
	<path class="st0" d="M11.9,26.6c1.8-1.4,3.7-2.7,5.5-4.1c0.4,1,0.2,0.8,1.2,1.2c0-0.9,0-1.8,0-2.6c1-0.1,0.9-0.1,1.4-0.5
		c-2.2-0.8-2.6-2.2-5.3-2.6c0.4,0.5,0.8,1,1.2,1.4C13.6,20.5,11.9,23.1,11.9,26.6z"/>
	<path class="st1" d="M-0.6,12.5c0.7-0.1,1.4-0.2,2.2-0.2c0.4-1.5,1.1-1.6,2.2-2.4C3.6,9.1,3.6,8.4,3.5,7.7c-0.1,0-0.2,0-0.2,0
		C2.9,9.1,2.3,9.1,1.1,9.6c-0.5-0.9,0-0.7-1-0.5C0,9.4,0,9.6-0.1,9.8c0.2,0.1,0.5,0.2,0.7,0.2C0.4,11.4,0,11.6-0.6,12.5z"/>
	<path class="st0" d="M30.4,8.2c0,0.4,0,0.8,0,1.2c1.5-0.5,0.9,0.2,2.2,0.7c1.7,0.7,3.5-0.9,4.6-1.2c0-0.1,0-0.2,0-0.2
		c-3.7,0-3.7-1.7-5.3-2.6c-0.3-0.1-0.6-0.2-1-0.2c-0.1,0.3-0.2,0.6-0.2,1c-2.2-0.6-3.2-0.9-4.6-2.2c0.2,1.5,0.4,2.5,1.4,3.1
		C28.2,8.1,29.1,8.2,30.4,8.2z"/>
	<path class="st1" d="M8.3,0.2c0.2,0,0.3,0,0.5,0C8.6,0.2,8.4,0.2,8.3,0.2z"/>
	<path class="st1" d="M-17.4,0c2-0.1,4.7-1.2,5.8-1.9c-0.2,0-0.3,0-0.5,0c-0.9-1.1-1.8-1.7-3.4-2.2c0.2,0.3,0.5,0.6,0.7,1
		c-0.6,0.5-1.3,1-1.9,1.4c0.7,1.1,0.6,0.1,0.5,1.2C-16.6-0.3-17-0.2-17.4,0z"/>
	<path class="st1" d="M8.8,0c0.2,0,0.3,0,0.5,0C9.1,0,8.9,0,8.8,0z"/>
	<path class="st1" d="M9.5-0.5c0.2,0,0.5,0,0.7,0c0.1-0.2,0.2-0.3,0.2-0.5c-0.1-0.2-0.2-0.3-0.2-0.5C10-1.4,9.9-1.3,9.7-1.2
		C9.6-1,9.6-0.7,9.5-0.5z"/>
	<path class="st1" d="M10.4-0.5c0.3,0,0.6,0,1,0c0-0.1,0-0.2,0-0.2C11.1-0.6,10.8-0.6,10.4-0.5z"/>
	<path class="st1" d="M-25.3-11.3c1.3,0,2,0.2,2.9-0.5c0-0.1,0-0.2,0-0.2c-1.7-0.3-0.8-0.7-2.2-1C-24.9-11.7-25.4-12.4-25.3-11.3z"
		/>
	<path class="st1" d="M-9-11.3c0.2-0.3,0.5-0.6,0.7-1c0.4-0.1,0.8-0.2,1.2-0.2c0.3,0.3,0.6,0.6,1,1c0-1.1,0.4-0.8,0-1.2
		c-0.4-0.5-0.9-1.3-1.2-0.5c-0.8,0.3-1,0.3-1.4,1C-8.8-11.9-8.9-11.6-9-11.3z"/>
	<path class="st1" d="M-24.4-21.1c0.1-0.2,0.2-0.3,0.2-0.5C-24.2-21.4-24.3-21.3-24.4-21.1z"/>
	<path class="st1" d="M-24.1-21.6c1-0.4,1.3-0.4,1.4-0.5c0.2-0.1,0.3-0.2,0.5-0.2c-0.4-0.2-0.8-0.3-1.2-0.5c-0.4,0.5,0,0.2-0.7,0.5
		C-24.1-22.1-24.1-21.8-24.1-21.6z"/>
	<path class="st1" d="M-25.8-25.7c0.1-0.2,0.2-0.5,0.2-0.7c-0.1,0-0.2,0-0.2,0C-25.8-26.2-25.8-25.9-25.8-25.7z"/>
	<path class="st1" d="M-67.1-25.9c0.1-0.2,0.2-0.3,0.2-0.5C-66.9-26.2-67-26.1-67.1-25.9z"/>
	<path class="st1" d="M-67.3-26.4c0.1-0.2,0.2-0.3,0.2-0.5C-67.2-26.7-67.2-26.6-67.3-26.4z"/>
	<path class="st1" d="M-67.6-26.9c0.1-0.2,0.2-0.3,0.2-0.5C-67.4-27.2-67.5-27-67.6-26.9z"/>
	<path class="st1" d="M-67.8-27.4c0.1-0.2,0.2-0.3,0.2-0.5C-67.6-27.7-67.7-27.5-67.8-27.4z"/>
	<path class="st1" d="M-68-27.8c0.1-0.2,0.2-0.3,0.2-0.5C-67.9-28.2-68-28-68-27.8z"/>
	<path class="st1" d="M-57.5-29.5c0.1-0.2,0.2-0.3,0.2-0.5C-57.3-29.8-57.4-29.7-57.5-29.5z"/>
	<path class="st1" d="M-58.2-33.4c0.1-0.2,0.2-0.3,0.2-0.5C-58-33.7-58.1-33.5-58.2-33.4z"/>
	<path class="st1" d="M-69.2-35c0.1-0.2,0.2-0.3,0.2-0.5C-69.1-35.4-69.2-35.2-69.2-35z"/>
	<path class="st1" d="M-24.1-35.5c0.1-0.2,0.2-0.3,0.2-0.5C-24-35.8-24-35.7-24.1-35.5z"/>
	<path class="st1" d="M-24.4-36.2c0.1-0.2,0.2-0.5,0.2-0.7c-0.1,0-0.2,0-0.2,0C-24.4-36.7-24.4-36.5-24.4-36.2z"/>
	<path class="st2" d="M-67.8-67.2c0.2,0,0.5,0,0.7,0C-67.3-67.2-67.6-67.2-67.8-67.2z"/>
</symbol>
<g>
	<defs>
		<rect id="SVGID_1_" width="1920" height="130"/>
	</defs>
	<clipPath id="SVGID_2_">
		<use xlink:href="#SVGID_1_"  style="overflow:visible;"/>
	</clipPath>
	<rect x="-45" y="-104.3" class="st3" width="2010" height="270"/>
	<g class="st4">
		
			<use xlink:href="#Voegel"  width="139" height="135.3" x="-69.2" y="-67.2" transform="matrix(1.007 0 0 -0.9134 8.9336 -82.9117)" style="overflow:visible;"/>
		
			<use xlink:href="#Voegel"  width="139" height="135.3" x="-69.2" y="-67.2" transform="matrix(0.9131 1.515180e-02 1.670353e-02 -0.8283 24.7187 211.2812)" style="overflow:visible;opacity:0.2233;"/>
		
			<use xlink:href="#Voegel"  width="139" height="135.3" x="-69.2" y="-67.2" transform="matrix(1.0135 0.1102 0.1215 -0.9194 44.3543 145.8568)" style="overflow:visible;opacity:0.6448;"/>
		
			<use xlink:href="#Voegel"  width="139" height="135.3" x="-69.2" y="-67.2" transform="matrix(1.2059 -3.436062e-03 -3.787957e-03 -1.0938 165.2401 -58.7052)" style="overflow:visible;"/>
		
			<use xlink:href="#Voegel"  width="139" height="135.3" x="-69.2" y="-67.2" transform="matrix(1.31 0 0 -1.1883 263.2678 -22.2067)" style="overflow:visible;"/>
		
			<use xlink:href="#Voegel"  width="139" height="135.3" x="-69.2" y="-67.2" transform="matrix(1.0518 -0.5228 -0.5763 -0.9541 267.7402 48.3942)" style="overflow:visible;"/>
		
			<use xlink:href="#Voegel"  width="139" height="135.3" x="-69.2" y="-67.2" transform="matrix(1.8309 -0.3863 -0.4259 -1.6608 295.1155 142.1165)" style="overflow:visible;opacity:0.382;"/>
		
			<use xlink:href="#Voegel"  width="139" height="135.3" x="-69.2" y="-67.2" transform="matrix(1.1235 -0.1689 -0.1862 -1.0191 236.3502 208.6459)" style="overflow:visible;"/>
		
			<use xlink:href="#Voegel"  width="139" height="135.3" x="-69.2" y="-67.2" transform="matrix(1.8238 0 0 -1.6544 333.1163 270.5821)" style="overflow:visible;"/>
		
			<use xlink:href="#Voegel"  width="139" height="135.3" x="-69.2" y="-67.2" transform="matrix(2.8252 0 0 -2.5628 502.3976 179.6943)" style="overflow:visible;"/>
		
			<use xlink:href="#Voegel"  width="139" height="135.3" x="-69.2" y="-67.2" transform="matrix(0.9133 0 0 -0.8284 358.3044 85.5424)" style="overflow:visible;"/>
		
			<use xlink:href="#Voegel"  width="139" height="135.3" x="-69.2" y="-67.2" transform="matrix(0.9133 0 0 -0.8284 802.0506 34.3423)" style="overflow:visible;"/>
		
			<use xlink:href="#Voegel"  width="139" height="135.3" x="-69.2" y="-67.2" transform="matrix(0.9127 2.935680e-02 3.236330e-02 -0.8279 868.9542 172.514)" style="overflow:visible;"/>
		
			<use xlink:href="#Voegel"  width="139" height="135.3" x="-69.2" y="-67.2" transform="matrix(1.6368 -0.3653 -0.4027 -1.4847 530.4483 -13.026)" style="overflow:visible;opacity:0.8412;"/>
		
			<use xlink:href="#Voegel"  width="139" height="135.3" x="-69.2" y="-67.2" transform="matrix(0.9133 0 0 -0.8284 701.6088 151.3096)" style="overflow:visible;"/>
		
			<use xlink:href="#Voegel"  width="139" height="135.3" x="-69.2" y="-67.2" transform="matrix(0.8651 0.2656 0.2928 -0.7847 817.3286 261.5475)" style="overflow:visible;opacity:0.6341;"/>
		
			<use xlink:href="#Voegel"  width="139" height="135.3" x="-69.2" y="-67.2" transform="matrix(1.1279 0 0 -1.0232 766.3958 240.7639)" style="overflow:visible;"/>
		
			<use xlink:href="#Voegel"  width="139" height="135.3" x="-69.2" y="-67.2" transform="matrix(0.9133 0 0 -0.8284 805.92 156.8503)" style="overflow:visible;opacity:0.533;"/>
		
			<use xlink:href="#Voegel"  width="139" height="135.3" x="-69.2" y="-67.2" transform="matrix(0.9133 0 0 -0.8284 916.0336 95.2953)" style="overflow:visible;"/>
		
			<use xlink:href="#Voegel"  width="139" height="135.3" x="-69.2" y="-67.2" transform="matrix(1.2287 -1.0876 -1.199 -1.1146 1130.1615 222.1116)" style="overflow:visible;opacity:0.7258;"/>
		
			<use xlink:href="#Voegel"  width="139" height="135.3" x="-69.2" y="-67.2" transform="matrix(2.3575 7.701471e-03 8.490197e-03 -2.1385 1068.0988 65.1062)" style="overflow:visible;opacity:0.1165;"/>
		
			<use xlink:href="#Voegel"  width="139" height="135.3" x="-69.2" y="-67.2" transform="matrix(1.499 -0.3901 -0.4301 -1.3597 930.2736 291.5722)" style="overflow:visible;"/>
		
			<use xlink:href="#Voegel"  width="139" height="135.3" x="-69.2" y="-67.2" transform="matrix(1.4371 6.545655e-02 7.216011e-02 -1.3036 1103.5327 7.5475)" style="overflow:visible;"/>
		
			<use xlink:href="#Voegel"  width="139" height="135.3" x="-69.2" y="-67.2" transform="matrix(1.2117 0 0 -1.0991 1378.8367 139.042)" style="overflow:visible;"/>
		
			<use xlink:href="#Voegel"  width="139" height="135.3" x="-69.2" y="-67.2" transform="matrix(1.3926 0 0 -1.2632 1301.6141 -17.5866)" style="overflow:visible;"/>
		
			<use xlink:href="#Voegel"  width="139" height="135.3" x="-69.2" y="-67.2" transform="matrix(1.0808 5.523356e-02 6.089016e-02 -0.9804 1279.3956 253.5948)" style="overflow:visible;opacity:0.7761;"/>
		
			<use xlink:href="#Voegel"  width="139" height="135.3" x="-69.2" y="-67.2" transform="matrix(1.1382 0.1068 0.1177 -1.0325 1603.6605 201.4304)" style="overflow:visible;opacity:0.1917;"/>
		
			<use xlink:href="#Voegel"  width="139" height="135.3" x="-69.2" y="-67.2" transform="matrix(0.8674 0.7073 0.7798 -0.7868 1538.5925 239.601)" style="overflow:visible;opacity:0.4998;"/>
		
			<use xlink:href="#Voegel"  width="139" height="135.3" x="-69.2" y="-67.2" transform="matrix(2.0976 0 0 -1.9027 1189.6476 122.4617)" style="overflow:visible;"/>
		
			<use xlink:href="#Voegel"  width="139" height="135.3" x="-69.2" y="-67.2" transform="matrix(1.3853 0 0 -1.2566 1702.7103 65.455)" style="overflow:visible;opacity:0.7785;"/>
		
			<use xlink:href="#Voegel"  width="139" height="135.3" x="-69.2" y="-67.2" transform="matrix(0.9196 0 0 -0.8342 1752.0168 180.0024)" style="overflow:visible;opacity:8.624182e-04;"/>
		
			<use xlink:href="#Voegel"  width="139" height="135.3" x="-69.2" y="-67.2" transform="matrix(0.9133 0 0 -0.8284 1697.1251 213.5373)" style="overflow:visible;opacity:0.7157;"/>
		
			<use xlink:href="#Voegel"  width="139" height="135.3" x="-69.2" y="-67.2" transform="matrix(2.3266 0 0 -2.1105 1854.0818 191.7747)" style="overflow:visible;"/>
		
			<use xlink:href="#Voegel"  width="139" height="135.3" x="-69.2" y="-67.2" transform="matrix(0.8651 0.2656 0.2928 -0.7847 642.0833 -3.216)" style="overflow:visible;opacity:0.6341;"/>
		
			<use xlink:href="#Voegel"  width="139" height="135.3" x="-69.2" y="-67.2" transform="matrix(0.9133 0 0 -0.8284 110.759 59.944)" style="overflow:visible;"/>
		
			<use xlink:href="#Voegel"  width="139" height="135.3" x="-69.2" y="-67.2" transform="matrix(1.8309 -0.3863 -0.4259 -1.6608 34.0012 52.4654)" style="overflow:visible;opacity:0.382;"/>
		
			<use xlink:href="#Voegel"  width="139" height="135.3" x="-69.2" y="-67.2" transform="matrix(2.8252 0 0 -2.5628 522.6243 273.9678)" style="overflow:visible;"/>
		
			<use xlink:href="#Voegel"  width="139" height="135.3" x="-69.2" y="-67.2" transform="matrix(0.9133 0 0 -0.8284 1804.5051 253.6631)" style="overflow:visible;opacity:0.7157;"/>
		
			<use xlink:href="#Voegel"  width="139" height="135.3" x="-69.2" y="-67.2" transform="matrix(0.9133 0 0 -0.8284 1642.1885 9.1767)" style="overflow:visible;"/>
		
			<use xlink:href="#Voegel"  width="139" height="135.3" x="-69.2" y="-67.2" transform="matrix(0.9133 0 0 -0.8284 1564.1981 63.0421)" style="overflow:visible;"/>
		
			<use xlink:href="#Voegel"  width="139" height="135.3" x="-69.2" y="-67.2" transform="matrix(0.9133 0 0 -0.8284 1533.5494 -18.4484)" style="overflow:visible;"/>
	</g>
	<g class="st5">
		
			<use xlink:href="#Feder-only"  width="160.5" height="74.4" x="-80.3" y="-36.1" transform="matrix(1.1724 7.913802e-03 7.913802e-03 -1.1724 237.9899 106.2209)" style="overflow:visible;"/>
		
			<use xlink:href="#Feder-only"  width="160.5" height="74.4" x="-80.3" y="-36.1" transform="matrix(0.7244 0.3981 0.3981 -0.7244 1866.8455 230.74)" style="overflow:visible;opacity:0.7495;"/>
		
			<use xlink:href="#Feder-only"  width="160.5" height="74.4" x="-80.3" y="-36.1" transform="matrix(1.3184 -0.1094 -0.1094 -1.3184 1790.8878 148.0401)" style="overflow:visible;opacity:0.8789;"/>
		
			<use xlink:href="#Feder-only"  width="160.5" height="74.4" x="-80.3" y="-36.1" transform="matrix(0.9998 -1.918611e-02 -1.918611e-02 -0.9998 1881.2809 -130.2398)" style="overflow:visible;opacity:0.5495;"/>
		
			<use xlink:href="#Feder-only"  width="160.5" height="74.4" x="-80.3" y="-36.1" transform="matrix(0.8402 0.3034 0.3034 -0.8402 1449.1565 257.1895)" style="overflow:visible;opacity:0.6388;"/>
		
			<use xlink:href="#Feder-only"  width="160.5" height="74.4" x="-80.3" y="-36.1" transform="matrix(0.8426 -0.3041 -0.3041 -0.8426 1535.8704 105.2166)" style="overflow:visible;opacity:0.7433;"/>
		
			<use xlink:href="#Feder-only"  width="160.5" height="74.4" x="-80.3" y="-36.1" transform="matrix(0.7648 -0.6443 -0.6443 -0.7648 1347.6542 141.2379)" style="overflow:visible;opacity:0.5862;"/>
		
			<use xlink:href="#Feder-only"  width="160.5" height="74.4" x="-80.3" y="-36.1" transform="matrix(1.3874 -0.1626 -0.1626 -1.3874 1150.6517 183.188)" style="overflow:visible;"/>
		
			<use xlink:href="#Feder-only"  width="160.5" height="74.4" x="-80.3" y="-36.1" transform="matrix(0.8884 7.121717e-02 7.121717e-02 -0.8884 951.3884 282.299)" style="overflow:visible;opacity:0.6713;"/>
		
			<use xlink:href="#Feder-only"  width="160.5" height="74.4" x="-80.3" y="-36.1" transform="matrix(0.7882 -0.6154 -0.6154 -0.7882 662.8398 263.1443)" style="overflow:visible;"/>
		
			<use xlink:href="#Feder-only"  width="160.5" height="74.4" x="-80.3" y="-36.1" transform="matrix(1.2077 -0.2696 -0.2696 -1.2077 354.0265 250.9888)" style="overflow:visible;"/>
		
			<use xlink:href="#Feder-only"  width="160.5" height="74.4" x="-80.3" y="-36.1" transform="matrix(0.6128 -0.4574 -0.4574 -0.6128 414.8066 94.4807)" style="overflow:visible;opacity:0.5735;"/>
		
			<use xlink:href="#Feder-only"  width="160.5" height="74.4" x="-80.3" y="-36.1" transform="matrix(0.8994 0.4371 0.4371 -0.8994 683.3024 -31.6504)" style="overflow:visible;opacity:0.7132;"/>
		
			<use xlink:href="#Feder-only"  width="160.5" height="74.4" x="-80.3" y="-36.1" transform="matrix(1.282 -0.3375 -0.3375 -1.282 500.7953 -75.8297)" style="overflow:visible;"/>
		
			<use xlink:href="#Feder-only"  width="160.5" height="74.4" x="-80.3" y="-36.1" transform="matrix(0.7933 0 0 -0.7933 356.7574 -95.4912)" style="overflow:visible;opacity:0.5357;"/>
		
			<use xlink:href="#Feder-only"  width="160.5" height="74.4" x="-80.3" y="-36.1" transform="matrix(0.9594 -0.282 -0.282 -0.9594 813.8445 -95.6037)" style="overflow:visible;"/>
		
			<use xlink:href="#Feder-only"  width="160.5" height="74.4" x="-80.3" y="-36.1" transform="matrix(0.7568 -8.950440e-02 -8.950440e-02 -0.7568 957.361 49.8297)" style="overflow:visible;opacity:0.547;"/>
		
			<use xlink:href="#Feder-only"  width="160.5" height="74.4" x="-80.3" y="-36.1" transform="matrix(0.6466 0.5282 0.5282 -0.6466 494.0374 162.4892)" style="overflow:visible;opacity:0.6442;"/>
		
			<use xlink:href="#Feder-only"  width="160.5" height="74.4" x="-80.3" y="-36.1" transform="matrix(0.7885 0.615 0.615 -0.7885 754.1099 108.8807)" style="overflow:visible;opacity:0.5823;"/>
		
			<use xlink:href="#Feder-only"  width="160.5" height="74.4" x="-80.3" y="-36.1" transform="matrix(0.9967 -8.116754e-02 -8.116754e-02 -0.9967 1296.2571 -16.246)" style="overflow:visible;opacity:0.7653;"/>
		
			<use xlink:href="#Feder-only"  width="160.5" height="74.4" x="-80.3" y="-36.1" transform="matrix(1.1117 -6.951098e-02 -6.951098e-02 -1.1117 1318.5564 -149.9714)" style="overflow:visible;"/>
		
			<use xlink:href="#Feder-only"  width="160.5" height="74.4" x="-80.3" y="-36.1" transform="matrix(0.9192 -0.3937 -0.3937 -0.9192 72.9231 -67.1661)" style="overflow:visible;"/>
		
			<use xlink:href="#Feder-only"  width="160.5" height="74.4" x="-80.3" y="-36.1" transform="matrix(0.7538 -0.4304 -0.4304 -0.7538 24.1919 96.8942)" style="overflow:visible;opacity:0.4327;"/>
		
			<use xlink:href="#Feder-only"  width="160.5" height="74.4" x="-80.3" y="-36.1" transform="matrix(0.9999 1.319165e-02 1.319165e-02 -0.9999 22.7165 270.5795)" style="overflow:visible;"/>
		
			<use xlink:href="#Feder-only"  width="160.5" height="74.4" x="-80.3" y="-36.1" transform="matrix(1.1501 0 0 -1.1501 1092.4402 -54.692)" style="overflow:visible;opacity:0.8851;"/>
		
			<use xlink:href="#Feder-only"  width="160.5" height="74.4" x="-80.3" y="-36.1" transform="matrix(1.4332 -2.528009e-02 -2.528009e-02 -1.4332 1608.65 -94.0895)" style="overflow:visible;"/>
		
			<use xlink:href="#Feder-only"  width="160.5" height="74.4" x="-80.3" y="-36.1" transform="matrix(0.895 -0.4461 -0.4461 -0.895 1634.0997 279.2811)" style="overflow:visible;"/>
	</g>
</g>
</svg>
